<svg height="512pt" viewBox="-18 0 512 512.001" width="512pt" xmlns="http://www.w3.org/2000/svg"><g fill="#383838"><path d="m65.152344 398.792969c-.546875-.917969-.699219-1.988281-.425782-3.015625.269532-1.03125.933594-1.886719 1.863282-2.417969l27.296875-15.496094c1.5-.851562 2.308593-2.027343 2.277343-3.3125-.03125-1.289062-.898437-2.421875-2.441406-3.199219l-21.011718-10.578124c-2.023438-1.019532-3.148438-3.703126-2.457032-5.863282l22.207032-68.945312h-46.765626c-25.195312 0-45.695312 20.386718-45.695312 45.449218v175.484376c0 2.816406 2.285156 5.101562 5.101562 5.101562h127.277344zm0 0"/><path d="m288.757812 314.988281h35.121094c-6.636718-16.964843-23.222656-29.023437-42.597656-29.023437h-46.320312l14.722656 46.59375c9.589844-10.769532 23.550781-17.570313 39.074218-17.570313zm0 0"/><path d="m236.445312 441.328125-42.171874 70.671875h42.171874zm0 0"/></g><path d="m21.503906 506.898438v-175.484376c0-25.0625 20.5-45.449218 45.695313-45.449218h-21.503907c-25.195312 0-45.695312 20.386718-45.695312 45.449218v175.484376c0 2.816406 2.285156 5.101562 5.101562 5.101562h21.503907c-2.820313 0-5.101563-2.285156-5.101563-5.101562zm0 0" fill="#282828"/><path d="m233.046875 276.597656c-.835937-2.640625-3.785156-4.800781-6.554687-4.800781h-14.09375v15.589844l.914062.078125c2.867188.246094 4.652344 2.566406 4.652344 6.058594v37.867187c0 1.871094-.511719 3.433594-1.476563 4.519531-.910156 1.027344-2.183593 1.566406-3.671875 1.566406-.949218 0-1.953125-.214843-2.992187-.648437l-10.988281-4.539063-35.347657 174.671876-35.347656-174.671876-10.984375 4.542969c-1.039062.429688-2.046875.644531-2.996094.644531-3.128906 0-5.148437-2.386718-5.148437-6.085937v-37.867187c0-3.492188 1.78125-5.8125 4.652343-6.058594l.914063-.078125v-15.589844h-13.5625c-2.773437 0-5.734375 2.15625-6.582031 4.792969l-25.128906 78.015625c-.847657 2.636719.480468 5.8125 2.957031 7.058593l21.011719 10.578126c2.476562 1.246093 2.527343 3.386718.121093 4.753906l-27.296875 15.496094c-2.410156 1.367187-3.222656 4.433593-1.804687 6.8125l67.1875 112.695312h64.019531l40.945312-68.683594v-32.527344h-3.558593c-2.292969 0-4.152344-1.859374-4.152344-4.148437v-28.753906c0-2.289063 1.859375-4.152344 4.152344-4.152344h3.558593v-6.457031c0-13.726563 5.332032-26.234375 14.019532-35.574219zm0 0" fill="#6d6e71"/><path d="m175.707031 322.730469c-.597656 1.558593-2.101562 2.675781-3.871093 2.675781h-17.058594c-1.71875 0-3.199219-1.050781-3.828125-2.542969l-23.75 9.816407 36.292969 179.320312 36.289062-179.320312zm0 0" fill="#fcf3eb"/><path d="m114.160156 287.433594c.949219 0 1.957032.21875 2.996094.644531l33.792969 13.96875c.628906-1.492187 2.109375-2.542969 3.828125-2.542969h17.0625c1.769531 0 3.269531 1.117188 3.867187 2.675782l34.117188-14.101563c1.039062-.425781 2.046875-.644531 2.996093-.644531.203126 0 .386719.035156.578126.054687v-34.25c-11.761719 6.496094-25.15625 10.042969-39.128907 10.042969h-21.554687c-14.191406 0-27.535156-3.679688-39.132813-10.109375v34.316406c.191407-.019531.375-.054687.578125-.054687zm0 0" fill="#fcf3eb"/><path d="m143.421875 327.054688-16.019531 6.625 36.089844 178.320312 8.679687-42.898438zm0 0" fill="#e0e0e0"/><path d="m117.539062 287.15625 12.183594 5.035156v-32.25c-5.664062-1.679687-11.070312-3.960937-16.140625-6.769531v33.296875c1.207031-.101562 2.542969.105469 3.957031.6875zm0 0" fill="#e0e0e0"/><path d="m214.148438 68.726562c19.03125 7.546876 35.476562 21.492188 39.761718 46.757813l.609375 3.609375 1.308594-3.421875c3.703125-9.675781 9.257813-18.328125 16.335937-25.769531v-26.820313c0-21.144531-17.230468-38.285156-38.484374-38.285156h-4.933594c-7.019532 0-13.597656 1.878906-19.261719 5.148437 2.984375 6.382813 4.667969 13.492188 4.667969 20.988282v17.792968zm0 0" fill="#ffaf10"/><path d="m57.003906 141.210938h14.984375v-12.296876c0-23.460937 8.964844-41.277343 26.644531-52.960937 15.464844-10.21875 37.894532-15.621094 64.859376-15.621094 14.679687 0 34.332031 1.683594 51.660156 8.792969v-18.191406c0-28.128906-22.925782-50.933594-51.203125-50.933594h-57.933594c-28.277344 0-51.199219 22.800781-51.199219 50.933594v90.441406c.714844-.097656 1.441406-.164062 2.1875-.164062zm0 0" fill="#f39600"/><path d="m57.003906 141.210938h14.984375v-12.296876c0-9.199218 1.398438-17.519531 4.140625-24.953124v-53.027344c0-28.132813 22.921875-50.933594 51.199219-50.933594h-21.316406c-28.273438 0-51.195313 22.800781-51.195313 50.933594v90.441406c.714844-.097656 1.441406-.164062 2.1875-.164062zm0 0" fill="#ce7a00"/><path d="m163.996094 299.503906 27.464844-38.054687c-5.578126 1.203125-11.335938 1.832031-17.195313 1.832031h-21.550781c-5.910156 0-11.667969-.652344-17.21875-1.859375l27.488281 38.082031zm0 0" fill="#f8d5ab"/><path d="m71.988281 182.890625v-42.679687h-14.984375c-9.507812 0-17.21875 7.679687-17.21875 17.148437v20.757813c0 9.46875 7.710938 17.148437 17.21875 17.148437h15.941406c-.628906-4.035156-.957031-8.167969-.957031-12.375zm0 0" fill="#ffe2b8"/><path d="m238.550781 215.738281v-19.035156c0-6.617187 4.515625-12.453125 10.984375-14.195313l.738282-.199218v-35.273438c0-10.621094 1.667968-20.578125 4.929687-29.71875-5.925781-41.992187-44.730469-57.988281-91.714844-57.988281-51.085937 0-92.5 18.90625-92.5 69.585937v53.976563c0 44.949219 36.589844 81.390625 81.726563 81.390625h21.550781c29.035156 0 54.511719-15.09375 69.011719-37.816406-2.902344-2.6875-4.726563-6.496094-4.726563-10.726563zm0 0" fill="#ffe2b8"/><path d="m92.621094 182.890625v-49.839844c-.230469-.183593-.453125-.375-.664063-.585937-2.921875-2.9375-2.90625-7.6875.03125-10.605469.328125-.328125.667969-.640625 1.007813-.953125 3.867187-41.285156 38.023437-58.851562 81.308594-61.277344-3.546876-.199218-7.15625-.296875-10.8125-.296875-51.089844 0-92.503907 18.90625-92.503907 69.582031v53.976563c0 44.949219 36.589844 81.390625 81.726563 81.390625h21.550781.042969c-45.121094-.023438-81.6875-36.453125-81.6875-81.390625zm0 0" fill="#ffc987"/><path d="m171.398438 187.03125h-10.402344c-6.808594 0-12.347656-5.527344-12.347656-12.324219v-24.554687c0-4.144532 3.355468-7.5 7.5-7.5 4.140624 0 7.5 3.355468 7.5 7.5v21.878906h7.753906c4.140625 0 7.5 3.355469 7.5 7.5-.003906 4.140625-3.359375 7.5-7.503906 7.5zm0 0" fill="#72563c"/><path d="m117.367188 171.097656c-4.144532 0-7.5-3.359375-7.5-7.5v-17.4375c0-4.140625 3.355468-7.5 7.5-7.5 4.140624 0 7.5 3.359375 7.5 7.5v17.4375c0 4.140625-3.359376 7.5-7.5 7.5zm0 0" fill="#72563c"/><path d="m137.457031 134.675781c-1.914062 0-3.828125-.726562-5.289062-2.183593-8.160157-8.117188-21.441407-8.117188-29.601563 0-2.9375 2.921874-7.6875 2.910156-10.609375-.027344-2.917969-2.9375-2.90625-7.6875.03125-10.605469 13.992188-13.917969 36.765625-13.917969 50.757813 0 2.9375 2.917969 2.949218 7.667969.027344 10.605469-1.464844 1.472656-3.390626 2.210937-5.316407 2.210937zm0 0" fill="#f39600"/><path d="m209.609375 171.097656c-4.140625 0-7.5-3.359375-7.5-7.5v-17.4375c0-4.140625 3.359375-7.5 7.5-7.5s7.5 3.359375 7.5 7.5v17.4375c0 4.140625-3.355469 7.5-7.5 7.5zm0 0" fill="#72563c"/><path d="m229.703125 134.675781c-1.914063 0-3.824219-.726562-5.289063-2.183593-8.164062-8.117188-21.441406-8.113282-29.605468 0-2.9375 2.921874-7.683594 2.910156-10.605469-.027344s-2.910156-7.6875.027344-10.605469c13.996093-13.917969 36.765625-13.917969 50.757812 0 2.9375 2.917969 2.953125 7.667969.03125 10.605469-1.464843 1.472656-3.390625 2.210937-5.316406 2.210937zm0 0" fill="#f39600"/><path d="m150.625 321.253906v-17.597656c0-.933594.320312-1.785156.839844-2.476562l-33.929688-14.023438c-5.238281-2.164062-9.523437.699219-9.523437 6.367188v37.867187c0 5.664063 4.285156 8.53125 9.523437 6.363281l33.929688-14.019531c-.519532-.695313-.839844-1.546875-.839844-2.480469zm0 0" fill="#f66"/><path d="m209.441406 287.15625-34.199218 14.132812c.46875.675782.75 1.488282.75 2.367188v17.597656c0 .882813-.28125 1.695313-.75 2.367188l34.199218 14.132812c5.238282 2.167969 9.523438-.699218 9.523438-6.363281v-37.867187c0-5.667969-4.285156-8.53125-9.523438-6.367188zm0 0" fill="#f66"/><path d="m124.929688 331.390625v-37.867187c0-1.160157.1875-2.191407.515624-3.097657l-7.910156-3.269531c-5.238281-2.164062-9.523437.699219-9.523437 6.367188v37.867187c0 5.664063 4.285156 8.53125 9.523437 6.363281l7.910156-3.269531c-.328124-.902344-.515624-1.9375-.515624-3.09375zm0 0" fill="#fe3745"/><path d="m176.992188 321.253906c0 2.832032-2.320313 5.152344-5.15625 5.152344h-17.058594c-2.835938 0-5.152344-2.320312-5.152344-5.152344v-17.597656c0-2.832031 2.316406-5.152344 5.152344-5.152344h17.058594c2.835937 0 5.15625 2.320313 5.15625 5.152344zm0 0" fill="#fe3745"/><path d="m163.496094 360.898438c-1.980469 0-3.910156-.796876-5.3125-2.1875-1.390625-1.402344-2.1875-3.332032-2.1875-5.3125 0-1.96875.796875-3.910157 2.1875-5.296876 1.402344-1.402343 3.332031-2.203124 5.3125-2.203124 1.96875 0 3.898437.800781 5.296875 2.203124 1.390625 1.398438 2.191406 3.328126 2.191406 5.296876 0 1.972656-.800781 3.910156-2.191406 5.3125-1.398438 1.390624-3.328125 2.1875-5.296875 2.1875zm0 0" fill="#383838"/><path d="m163.496094 397.859375c-1.980469 0-3.910156-.800781-5.3125-2.199219-1.390625-1.390625-2.1875-3.332031-2.1875-5.300781 0-1.980469.796875-3.910156 2.1875-5.308594 1.402344-1.390625 3.332031-2.191406 5.3125-2.191406 1.96875 0 3.898437.800781 5.296875 2.191406 1.390625 1.398438 2.191406 3.328125 2.191406 5.308594 0 1.96875-.800781 3.902344-2.191406 5.300781-1.398438 1.398438-3.328125 2.199219-5.296875 2.199219zm0 0" fill="#383838"/><path d="m163.488281 230.875c-12.441406 0-24.875-4.730469-34.347656-14.199219-2.929687-2.925781-2.929687-7.675781-.003906-10.605469 2.929687-2.929687 7.679687-2.929687 10.609375 0 13.089844 13.085938 34.390625 13.085938 47.484375 0 2.929687-2.929687 7.679687-2.929687 10.605469 0 2.929687 2.929688 2.929687 7.679688 0 10.605469-9.46875 9.464844-21.910157 14.199219-34.347657 14.199219zm0 0" fill="#72563c"/><path d="m351.808594 59.628906c19.527344 0 37.789062 3.941406 53.230468 11.300782-.238281-29.1875-23.96875-52.78125-53.230468-52.78125-29.257813 0-52.992188 23.59375-53.230469 52.78125 15.4375-7.359376 33.703125-11.300782 53.230469-11.300782zm0 0" fill="#9b5729"/><path d="m320.710938 63.195312c3.394531-21.980468 20.226562-39.527343 41.855468-43.960937-3.476562-.710937-7.070312-1.085937-10.757812-1.085937-29.257813 0-52.992188 23.59375-53.230469 52.78125 6.863281-3.273438 14.289063-5.863282 22.132813-7.734376zm0 0" fill="#7f441c"/><path d="m468.171875 373.734375v-6.453125c0-29.386719-23.914063-53.292969-53.308594-53.292969h-36.363281c-2.828125 0-5.128906-2.296875-5.128906-5.125v-14.757812c-3.769532.582031-7.632813.890625-11.566406.890625h-19.988282c-3.933594 0-7.796875-.308594-11.570312-.894532v14.761719c0 2.824219-2.296875 5.125-5.125 5.125h-36.363282c-29.394531 0-53.3125 23.90625-53.3125 53.289063v6.457031zm0 0" fill="#ffe2b8"/><path d="m235.445312 410.789062h27.144532v101.210938h-27.144532zm0 0" fill="#ffe2b8"/><path d="m441.03125 512h22.015625c2.832031 0 5.125-2.292969 5.125-5.125v-96.085938h-27.140625zm0 0" fill="#ffe2b8"/><path d="m235.445312 410.789062h21.257813v101.210938h-21.257813zm0 0" fill="#ffc987"/><path d="m256.703125 373.734375v-6.453125c0-29.386719 23.914063-53.292969 53.308594-53.292969h-21.253907c-29.394531 0-53.3125 23.90625-53.3125 53.292969v6.453125zm0 0" fill="#ffc987"/><path d="m430.804688 410.789062c-.652344.941407-1.398438 1.851563-2.253907 2.703126-.316406.320312-.648437.625-.988281.921874l-.867188.753907.867188.753906c.339844.296875.671875.601563.988281.921875 2.761719 2.761719 4.550781 6.089844 5.039063 9.371094.472656 3.167968-.332032 5.976562-2.257813 7.90625-1.546875 1.546875-3.675781 2.363281-6.152343 2.363281-3.75 0-7.910157-1.921875-11.128907-5.140625-.898437-.898438-1.707031-1.875-2.398437-2.90625l-.828125-1.230469-.832031 1.230469c-.691407 1.027344-1.496094 2.003906-2.398438 2.90625-3.21875 3.21875-7.382812 5.140625-11.128906 5.140625-2.476563 0-4.601563-.816406-6.148438-2.363281-1.933594-1.929688-2.734375-4.738282-2.265625-7.90625.488281-3.28125 2.277344-6.609375 5.042969-9.367188.316406-.320312.648438-.628906.988281-.925781l.859375-.753906-.859375-.753907c-.339843-.296874-.671875-.605468-.992187-.925781-.851563-.851562-1.597656-1.757812-2.253906-2.699219h-129.246094v101.210938h180.441406v-101.210938zm0 0" fill="#def9ff"/><path d="m261.589844 410.789062h21.628906v101.210938h-21.628906zm0 0" fill="#abebff"/><path d="m253.457031 181.976562h13.554688v-18.492187c0-2.070313 1.691406-3.757813 3.765625-3.757813h67.699218c12.699219 0 24.796876-6.730468 31.574219-17.5625.691407-1.105468 1.882813-1.765624 3.191407-1.765624 1.304687 0 2.496093.660156 3.1875 1.765624 6.78125 10.832032 18.878906 17.5625 31.574218 17.5625h24.839844c2.074219 0 3.761719 1.6875 3.761719 3.757813v18.492187h13.558593c1.453126 0 2.851563.214844 4.179688.601563v-35.542969c0-55.976562-45.902344-88.40625-102.53125-88.40625-56.632812 0-102.535156 32.429688-102.535156 88.40625v35.542969c1.324218-.386719 2.726562-.601563 4.179687-.601563zm0 0" fill="#b57a4e"/><path d="m253.457031 181.976562h13.554688v-18.492187c0-1.78125 1.25-3.269531 2.917969-3.65625v-12.792969c0-52.53125 40.429687-84.320312 92.207031-88.039062-3.394531-.242188-6.839844-.367188-10.328125-.367188-56.628906 0-102.53125 32.433594-102.53125 88.40625v35.542969c1.324218-.386719 2.726562-.601563 4.179687-.601563zm0 0" fill="#9b5729"/><path d="m450.160156 180.976562h-13.554687v39.535157c0 3.71875-.285157 7.378906-.816407 10.953125h14.371094c8.785156 0 15.90625-7.042969 15.90625-15.726563v-19.039062c0-8.683594-7.121094-15.722657-15.90625-15.722657zm0 0" fill="#f8d5ab"/><path d="m267.011719 220.511719v-39.535157h-13.554688c-8.785156 0-15.90625 7.039063-15.90625 15.726563v19.035156c0 8.6875 7.121094 15.730469 15.90625 15.730469h14.371094c-.53125-3.578125-.816406-7.238281-.816406-10.957031zm0 0" fill="#f8d5ab"/><path d="m341.816406 296c-41.796875 0-75.804687-33.863281-75.804687-75.488281v-57.023438c0-2.628906 2.132812-4.761719 4.765625-4.761719h67.699218c12.351563 0 24.128907-6.546874 30.726563-17.089843.867187-1.394531 2.394531-2.238281 4.039063-2.238281 1.640624 0 3.164062.84375 4.035156 2.238281 6.597656 10.542969 18.375 17.089843 30.726562 17.089843h24.839844c2.628906 0 4.761719 2.132813 4.761719 4.761719v57.023438c0 41.625-34.003907 75.488281-75.800781 75.488281zm0 0" fill="#ffe2b8"/><path d="m287.417969 220.511719v-57.027344c0-2.628906 2.132812-4.757813 4.761719-4.757813h-21.402344c-2.628906 0-4.765625 2.128907-4.765625 4.757813v57.027344c0 41.621093 34.011719 75.484375 75.804687 75.484375h19.988282c.238281 0 .472656-.015625.707031-.015625-41.46875-.378907-75.09375-34.082031-75.09375-75.46875zm0 0" fill="#ffc987"/><path d="m308.132812 209.800781c-4.140624 0-7.5-3.359375-7.5-7.5v-16.511719c0-4.144531 3.359376-7.5 7.5-7.5 4.144532 0 7.5 3.355469 7.5 7.5v16.511719c0 4.140625-3.355468 7.5-7.5 7.5zm0 0" fill="#72563c"/><path d="m395.484375 209.800781c-4.144531 0-7.5-3.359375-7.5-7.5v-16.511719c0-4.144531 3.355469-7.5 7.5-7.5 4.140625 0 7.5 3.355469 7.5 7.5v16.511719c0 4.140625-3.359375 7.5-7.5 7.5zm0 0" fill="#72563c"/><path d="m358.71875 219.925781h-9.425781c-6.554688 0-11.890625-5.324219-11.890625-11.863281v-15.578125c0-4.140625 3.355468-7.5 7.5-7.5 4.144531 0 7.5 3.359375 7.5 7.5v12.441406h6.316406c4.140625 0 7.5 3.359375 7.5 7.5s-3.359375 7.5-7.5 7.5zm0 0" fill="#72563c"/><path d="m351.8125 272.1875c-16.253906 0-29.480469-13.136719-29.480469-29.285156 0-3.066406 2.507813-5.558594 5.597657-5.558594h47.761718c3.085938 0 5.597656 2.492188 5.597656 5.558594 0 16.148437-13.226562 29.285156-29.476562 29.285156zm0 0" fill="#ffa05f"/><path d="m343.894531 242.902344c0-3.066406 2.511719-5.558594 5.601563-5.558594h-21.566406c-3.089844 0-5.597657 2.492188-5.597657 5.558594 0 16.148437 13.226563 29.285156 29.480469 29.285156 3.804688 0 7.4375-.726562 10.78125-2.035156-10.9375-4.289063-18.699219-14.882813-18.699219-27.25zm0 0" fill="#ff812c"/><path d="m470.734375 372.734375h-237.851563c-2.832031 0-5.152343 2.320313-5.152343 5.152344v28.753906c0 2.832031 2.320312 5.148437 5.152343 5.148437h158.699219c-1.898437-2.375-3.140625-5.03125-3.53125-7.664062-.46875-3.171875.332031-5.980469 2.261719-7.90625 1.546875-1.546875 3.675781-2.367188 6.152344-2.367188 3.746094 0 7.90625 1.921876 11.128906 5.144532.898438.898437 1.707031 1.875 2.398438 2.90625l.832031 1.230468.828125-1.234374c.695312-1.03125 1.5-2.007813 2.394531-2.902344 3.222656-3.21875 7.382813-5.140625 11.132813-5.140625 2.476562 0 4.605468.816406 6.152343 2.363281 1.925781 1.925781 2.730469 4.734375 2.257813 7.90625-.390625 2.632812-1.632813 5.289062-3.53125 7.664062h40.675781c2.835937 0 5.152344-2.316406 5.152344-5.148437v-28.753906c0-2.832031-2.316407-5.152344-5.152344-5.152344zm0 0" fill="#e0e0e0"/><path d="m249.28125 406.640625v-28.753906c0-2.832031 2.320312-5.152344 5.152344-5.152344h-21.550782c-2.832031 0-5.152343 2.320313-5.152343 5.152344v28.753906c0 2.832031 2.320312 5.148437 5.152343 5.148437h21.550782c-2.832032 0-5.152344-2.316406-5.152344-5.148437zm0 0" fill="#c7c8ca"/><path d="m344.839844 329.578125-16.007813-17.195313c-.9375.984376-2.25 1.605469-3.710937 1.605469h-15.289063l26.105469 28.039063c.664062-5.492188 4.117188-10.121094 8.902344-12.449219zm0 0" fill="#c7c8ca"/><path d="m367.667969 341.9375 25.773437-27.949219h-14.941406c-1.535156 0-2.898438-.691406-3.839844-1.761719l-15.964844 17.3125c4.800782 2.300782 8.277344 6.914063 8.972657 12.398438zm0 0" fill="#c7c8ca"/><path d="m368.808594 343.957031c0 9.390625-7.609375 17-17 17-9.386719 0-17-7.609375-17-17s7.613281-17 17-17c9.390625 0 17 7.609375 17 17zm0 0" fill="#fff"/><path d="m425.179688 437.484375c-4.007813 0-8.433594-2.03125-11.835938-5.433594-.953125-.949219-1.796875-1.976562-2.523438-3.054687-.726562 1.078125-1.570312 2.105468-2.519531 3.054687-3.40625 3.402344-7.828125 5.433594-11.835937 5.433594-2.75 0-5.121094-.917969-6.859375-2.65625-4.464844-4.460937-3.242188-12.671875 2.777343-18.6875.335938-.335937.683594-.660156 1.039063-.972656-.355469-.308594-.703125-.632813-1.039063-.96875-6.019531-6.019531-7.242187-14.230469-2.777343-18.6875 1.738281-1.742188 4.109375-2.660157 6.859375-2.660157 4.007812 0 8.429687 2.035157 11.835937 5.433594.949219.953125 1.796875 1.980469 2.519531 3.054688.726563-1.074219 1.570313-2.101563 2.523438-3.050782 3.402344-3.402343 7.828125-5.4375 11.835938-5.4375 2.746093 0 5.121093.921876 6.859374 2.660157 4.460938 4.460937 3.238282 12.667969-2.78125 18.6875-.332031.335937-.683593.660156-1.039062.96875.355469.3125.707031.636719 1.039062.972656 6.023438 6.019531 7.242188 14.226563 2.78125 18.6875-1.738281 1.738281-4.113281 2.65625-6.859374 2.65625zm0 0" fill="#f66"/></svg>